<?xml version="1.0" standalone="no"?>
<!DOCTYPE svg PUBLIC "-//W3C//DTD SVG 20010904//EN"
 "http://www.w3.org/TR/2001/REC-SVG-20010904/DTD/svg10.dtd">
<svg version="1.0" xmlns="http://www.w3.org/2000/svg"
 width="373.000000pt" height="373.000000pt" viewBox="0 0 373.000000 373.000000"
 preserveAspectRatio="xMidYMid meet">
<metadata>
Created by potrace 1.11, written by Peter Selinger 2001-2013
</metadata>
<g transform="translate(0.000000,373.000000) scale(0.100000,-0.100000)"
fill="#000000" stroke="none">
<path d="M973 3669 c-17 -5 -46 -26 -63 -47 l-31 -37 58 -17 c32 -9 77 -22
100 -28 43 -11 63 -27 111 -89 19 -24 23 -36 14 -39 -18 -6 -15 -26 8 -40 17
-10 18 -15 8 -33 -11 -17 -10 -22 7 -35 11 -8 36 -19 57 -24 26 -7 49 -25 75
-58 21 -26 46 -56 57 -67 24 -26 106 -193 106 -216 0 -10 9 -42 19 -71 25 -70
35 -128 21 -128 -5 0 -10 8 -10 18 0 13 -2 14 -9 3 -13 -20 -54 -7 -93 32 -19
18 -56 48 -81 67 -26 18 -47 39 -47 45 0 6 -15 22 -32 35 -18 13 -41 34 -51
47 -10 13 -24 23 -32 23 -7 0 -15 9 -18 21 -3 11 -15 23 -26 26 -12 3 -21 9
-21 13 0 12 -89 104 -140 144 -25 19 -45 40 -45 45 0 5 -38 45 -84 89 -81 77
-111 91 -111 52 0 -10 -7 -23 -15 -30 -9 -8 -15 -8 -15 -2 0 6 -15 14 -32 17
-18 4 -35 10 -38 14 -13 16 -105 55 -124 52 -11 -1 -27 -3 -33 -3 -7 -1 -13
-6 -13 -12 0 -6 -5 -4 -10 4 -8 13 -10 13 -10 -2 0 -10 -9 -25 -19 -35 -21
-20 -45 -96 -60 -191 -17 -105 11 -204 82 -288 27 -32 35 -54 46 -118 36 -224
108 -400 202 -501 l29 -31 -59 -116 c-68 -134 -106 -242 -122 -348 -13 -85 -6
-416 10 -465 l9 -30 1 35 c1 19 8 70 16 112 53 278 87 338 233 412 46 23 61
26 114 21 73 -6 78 -9 150 -81 65 -66 74 -92 64 -187 -10 -94 -42 -219 -59
-228 -8 -5 -20 -22 -27 -39 -9 -21 -19 -30 -35 -30 -25 0 -135 61 -156 86 -6
8 -17 14 -23 14 -6 0 -31 13 -55 29 -48 32 -62 31 -102 -6 -22 -20 -29 -41
-40 -104 -12 -73 -14 -78 -26 -57 -7 13 -13 52 -14 88 l-2 65 -7 -50 c-12 -76
-11 -208 1 -244 6 -17 23 -38 38 -46 28 -14 234 -45 300 -45 52 0 99 36 116
90 15 43 15 43 10 8 -8 -52 -42 -126 -65 -138 -27 -14 -32 -13 -25 10 5 17 3
19 -16 12 -12 -5 -47 -5 -78 0 -31 4 -90 12 -132 17 -45 6 -90 18 -112 31 -42
25 -47 17 -14 -23 16 -20 40 -33 77 -43 l55 -14 -55 6 c-30 3 -67 14 -82 25
l-27 19 5 -152 c3 -84 7 -168 10 -186 6 -36 34 -67 112 -119 28 -19 52 -37 52
-39 0 -3 -19 -14 -42 -24 -24 -11 -37 -20 -29 -20 8 0 11 -3 8 -7 -4 -3 22
-24 57 -47 35 -23 75 -49 89 -59 39 -28 170 -76 282 -104 128 -32 167 -48 237
-97 l57 -39 61 13 c34 7 116 13 184 14 116 1 124 0 157 -25 41 -30 72 -43 159
-64 196 -49 216 -50 222 -11 3 19 10 21 97 26 l94 5 31 44 c17 24 38 47 46 52
8 4 83 29 165 55 83 26 154 51 159 55 6 5 17 9 25 9 9 0 25 8 36 16 20 15 20
15 -2 34 -28 22 -29 30 -5 30 9 0 36 9 58 19 31 14 43 26 47 47 3 16 0 32 -5
35 -6 4 -12 31 -14 61 -3 53 -2 53 34 70 20 10 26 15 13 11 -25 -5 -25 -5 3
21 29 26 82 46 124 46 16 0 22 6 22 21 0 12 8 28 18 35 14 12 15 15 2 23 -8 5
-17 8 -21 5 -11 -6 -18 21 -9 36 4 7 13 9 19 6 7 -4 11 1 11 12 0 11 11 40 25
65 56 99 77 168 82 269 l6 98 32 6 c53 10 93 39 103 78 15 53 -19 224 -69 351
-20 51 -78 103 -100 89 -6 -3 -31 2 -55 11 -25 9 -47 15 -50 13 -2 -3 5 -17
16 -31 18 -23 49 -113 54 -156 4 -47 -78 10 -90 62 -3 17 -25 50 -46 73 -47
50 -155 205 -169 242 -9 27 -9 27 8 6 10 -12 30 -24 46 -28 26 -6 27 -5 21 21
-11 52 -26 82 -44 88 -10 3 -28 15 -41 26 l-24 21 23 15 c12 9 22 21 22 27 0
6 9 17 21 24 35 22 16 23 -41 3 l-54 -19 -31 21 c-45 32 -75 70 -64 81 5 6 24
15 41 21 30 9 33 14 32 50 0 22 -3 47 -7 55 -6 12 -1 16 20 18 101 7 240 69
297 133 20 21 42 61 50 90 14 46 14 55 1 82 -8 17 -15 36 -15 42 0 27 -34 115
-40 105 -4 -6 -15 11 -25 37 -10 26 -25 54 -32 62 -8 7 -17 26 -20 42 -4 22
-11 29 -29 29 -12 0 -30 -7 -38 -16 -15 -14 -16 -14 -16 0 0 9 -8 16 -17 16
-10 0 -14 -4 -8 -8 20 -14 7 -182 -14 -182 -4 0 -13 -11 -21 -24 -7 -14 -18
-22 -26 -19 -8 3 -14 1 -14 -4 0 -15 -53 -41 -101 -48 -43 -6 -47 -5 -52 17
-4 12 -7 54 -7 92 0 51 -6 81 -22 115 -21 42 -33 57 -40 50 -8 -8 -51 40 -65
71 -62 144 -105 259 -104 279 1 26 26 50 52 51 13 0 39 37 39 55 0 3 -31 5
-70 5 -56 0 -70 3 -70 15 0 8 -7 15 -15 15 -8 0 -15 5 -15 10 0 6 18 10 40 10
22 0 40 -4 40 -10 0 -5 9 -10 20 -10 11 0 20 7 20 15 0 12 -16 15 -80 15 -64
0 -80 -3 -80 -15 0 -9 -8 -14 -21 -12 -35 3 -33 -20 3 -39 32 -17 32 -17 10
-27 -35 -16 -27 -43 22 -72 31 -18 48 -37 56 -59 6 -18 36 -75 68 -127 42 -69
62 -114 75 -169 9 -41 17 -80 17 -87 0 -13 -82 -41 -195 -66 -214 -47 -228
-50 -286 -44 -39 5 -91 22 -155 52 -115 54 -128 55 -120 18 l5 -28 -12 25
c-21 44 -72 100 -91 100 -14 0 -64 90 -86 155 -10 28 -32 80 -49 116 -17 36
-31 82 -31 102 0 36 1 36 49 43 39 5 51 11 60 31 6 13 11 26 11 28 0 3 -35 5
-77 5 -57 0 -81 -4 -95 -17 -11 -10 -18 -12 -18 -4 0 6 6 14 14 17 8 3 12 12
9 20 -4 10 5 14 33 15 22 1 46 1 56 0 26 -3 31 18 6 24 -13 3 -58 4 -101 2
-42 -2 -77 0 -77 5 0 18 -103 2 -139 -21 -12 -8 -13 -15 -4 -34 11 -24 7 -67
-6 -67 -4 0 -15 13 -24 30 -14 23 -28 31 -58 36 -23 4 -35 10 -29 14 15 9 -46
110 -66 110 -9 0 -12 5 -9 10 8 12 -58 12 -102 -1z m464 -156 c-3 -10 -5 -2
-5 17 0 19 2 27 5 18 2 -10 2 -26 0 -35z m1026 10 c-7 -2 -19 -2 -25 0 -7 3
-2 5 12 5 14 0 19 -2 13 -5z m97 -654 c41 -86 14 -99 -200 -98 -112 0 -238
-12 -260 -26 -5 -3 -59 -7 -119 -10 -96 -3 -112 -2 -120 13 -6 9 -11 13 -11 7
0 -13 -20 17 -20 31 0 7 34 14 86 18 48 3 155 24 240 46 84 22 194 44 245 50
50 5 94 11 97 15 16 16 40 -1 62 -46z m90 -200 c0 -6 -4 -7 -10 -4 -5 3 -10
11 -10 16 0 6 5 7 10 4 6 -3 10 -11 10 -16z m110 -78 c0 -11 -60 -21 -124 -21
-51 0 -54 14 -6 23 46 8 130 7 130 -2z m-856 -101 c7 -7 -10 -10 -52 -10 -51
0 -62 3 -62 16 0 14 8 16 52 11 28 -4 56 -11 62 -17z m806 -10 c0 -17 5 -19
25 -14 18 4 25 2 25 -9 0 -8 -13 -17 -29 -20 -16 -3 -42 -9 -57 -13 -27 -6
-28 -5 -10 8 11 9 16 20 12 27 -8 12 10 41 25 41 5 0 9 -9 9 -20z m-1745 -37
c-11 -65 -43 -120 -75 -132 -20 -6 -32 -6 -36 0 -3 6 -17 15 -31 20 -23 8 -24
13 -18 47 7 40 18 51 50 52 11 1 38 12 60 25 54 32 58 31 50 -12z m815 33 c0
-11 -19 -15 -25 -6 -3 5 1 10 9 10 9 0 16 -2 16 -4z m780 -101 c10 -12 10 -15
0 -15 -7 0 -29 -13 -50 -30 -20 -16 -40 -27 -44 -25 -3 3 -4 2 -1 -1 2 -4 -16
-30 -40 -58 -25 -28 -50 -66 -57 -86 -6 -19 -18 -45 -26 -57 -14 -22 -13 -23
14 -23 34 0 129 42 164 73 20 18 22 18 10 3 -14 -18 -13 -19 2 -13 38 14 36
-18 -8 -111 -60 -126 -56 -168 12 -142 33 13 34 13 28 -5 -4 -8 -10 -13 -14
-10 -5 3 -10 1 -12 -4 -1 -5 -54 -24 -116 -42 -135 -40 -134 -40 -162 77 -24
95 -25 140 -5 148 10 4 13 17 10 46 -2 23 0 51 5 63 5 12 9 18 10 12 0 -10 20
15 20 27 0 4 -10 8 -22 10 -12 2 -23 9 -26 16 -3 9 6 11 38 6 39 -6 42 -6 36
14 -6 17 7 30 84 81 93 62 128 73 150 46z m-685 -35 c5 -25 12 -30 35 -30 22
0 30 -7 40 -32 7 -18 24 -47 37 -65 12 -17 23 -36 23 -41 0 -15 -139 -25 -155
-12 -15 12 -48 79 -60 118 -5 19 -3 22 20 22 20 0 26 4 21 15 -7 20 11 68 23
60 5 -3 12 -19 16 -35z m758 -111 c-4 -13 -9 -17 -15 -11 -11 11 -3 32 12 32
4 0 6 -9 3 -21z m-644 -136 c20 -40 43 -114 37 -120 -5 -6 -83 36 -94 50 -5 7
-13 27 -17 45 -4 20 -11 30 -18 25 -7 -3 -3 3 7 15 30 34 62 28 85 -15z m-966
-40 c4 -2 4 -9 1 -15 -4 -6 -9 -5 -15 3 -9 15 -15 5 -21 -36 -2 -15 -11 -20
-33 -20 -29 0 -30 2 -31 43 l0 43 45 -7 c25 -4 49 -9 54 -11z m772 -40 c-3
-10 -13 -76 -21 -146 -8 -71 -19 -136 -25 -145 -9 -14 -10 -15 -6 -1 9 28 -8
38 -67 42 -41 3 -61 8 -68 20 -5 9 -17 17 -27 17 -10 0 -28 9 -41 20 -13 12
-30 18 -37 16 -7 -3 -13 1 -13 9 0 8 -7 15 -15 15 -33 0 -5 44 42 66 41 20
263 103 277 104 4 0 5 -8 1 -17z m-783 -25 c-9 -9 -12 -7 -12 12 0 19 3 21 12
12 9 -9 9 -15 0 -24z m-42 -44 c0 -9 -10 -14 -27 -13 l-28 1 25 8 c18 6 20 8
7 9 -10 1 -16 5 -12 11 8 13 35 1 35 -16z m-27 -31 c-7 -2 -19 -2 -25 0 -7 3
-2 5 12 5 14 0 19 -2 13 -5z m1657 -13 c0 -5 -4 -10 -10 -10 -5 0 -10 5 -10
10 0 6 5 10 10 10 6 0 10 -4 10 -10z m-431 -137 c0 -6 -15 -17 -34 -23 -19 -6
-32 -16 -29 -21 3 -6 12 -8 19 -5 8 3 16 0 19 -7 2 -7 5 -4 5 7 1 13 6 17 21
13 11 -3 20 -1 20 4 0 5 10 9 23 9 28 1 114 23 123 33 15 14 26 6 13 -9 -9
-12 -3 -10 21 5 19 11 46 21 60 21 14 0 34 6 45 14 11 7 36 17 55 21 19 4 38
13 42 19 11 17 308 22 319 5 12 -20 10 -69 -4 -100 l-12 -27 -49 16 c-46 15
-51 15 -90 -5 -22 -11 -71 -34 -107 -51 -37 -18 -91 -55 -123 -85 -59 -57 -68
-70 -38 -60 32 11 -5 -20 -56 -47 -26 -14 -53 -38 -60 -53 -13 -27 -15 -28
-33 -11 -18 16 -19 16 -19 -2 0 -11 -3 -15 -8 -9 -4 6 -17 12 -29 12 -22 2
-27 -6 -24 -34 1 -6 -3 -14 -7 -17 -5 -3 -15 16 -22 42 -7 26 -17 51 -21 56
-4 5 -4 17 2 28 5 10 6 18 1 18 -5 0 -7 12 -4 27 4 22 2 25 -12 20 -9 -4 -15
-3 -12 2 3 5 -12 11 -34 15 -22 3 -40 10 -40 14 -1 4 -23 31 -50 61 -27 29
-48 57 -45 61 2 4 -5 31 -17 61 -24 63 -32 109 -18 109 6 0 10 -6 10 -14 0 -7
8 -16 18 -20 9 -3 23 -9 30 -12 8 -4 12 4 12 27 l0 32 69 -64 c38 -35 69 -69
70 -76z m-236 -3 c5 -21 2 -25 -19 -26 -19 -2 -23 2 -20 15 3 9 8 29 12 45 6
26 8 27 14 10 4 -10 10 -30 13 -44z m-49 -181 c36 -17 55 -65 59 -152 5 -88
-9 -84 -19 5 -6 49 -12 64 -48 101 -22 24 -47 42 -55 39 -8 -3 -11 0 -7 7 9
14 38 14 70 0z m1246 -99 c0 -5 -12 -12 -27 -15 -16 -3 -44 -10 -63 -15 -54
-15 -57 5 -3 23 55 18 93 21 93 7z m0 -49 c0 -5 -28 -14 -63 -20 -76 -13 -77
-13 -77 -2 0 4 24 13 53 18 70 14 87 15 87 4z m-10 -43 c0 -19 -2 -20 -10 -8
-13 19 -13 30 0 30 6 0 10 -10 10 -22z m7 -50 c-3 -8 -6 -5 -6 6 -1 11 2 17 5
13 3 -3 4 -12 1 -19z m-868 -60 c14 -40 8 -45 -29 -27 -29 13 -30 15 -15 37
22 30 31 28 44 -10z m926 -10 c4 -4 -10 -11 -31 -17 -105 -26 -122 -25 -87 8
17 16 104 23 118 9z m-881 -34 c32 -12 16 -31 -31 -37 -27 -4 -65 -10 -87 -13
-62 -11 -40 17 30 37 71 21 68 20 88 13z m-1311 -86 c-15 -30 -33 -37 -33 -13
0 8 8 31 17 51 17 34 18 35 24 13 3 -13 0 -36 -8 -51z m1325 20 c-3 -7 -22
-16 -44 -19 -21 -4 -59 -10 -84 -14 -69 -12 -40 5 42 25 92 23 90 22 86 8z
m857 -47 c-7 -12 -114 -35 -122 -27 -6 6 3 10 57 25 47 12 72 13 65 2z m-915
-95 c0 -3 -4 -8 -10 -11 -5 -3 -10 -1 -10 4 0 6 5 11 10 11 6 0 10 -2 10 -4z
m552 -22 c2 -15 12 -32 23 -38 57 -32 58 -66 3 -93 -58 -28 -125 -42 -235 -48
-79 -4 -91 -2 -87 10 11 28 252 195 281 195 6 0 13 -12 15 -26z m-474 -16 c-5
-13 -57 -31 -121 -41 -63 -10 -39 14 34 33 82 22 92 23 87 8z m-19 -450 c1
-30 -24 -39 -47 -16 -16 16 -15 39 2 32 14 -5 25 20 27 66 2 31 18 -41 18 -82z"/>
<path d="M2021 1791 c-12 -8 -13 -14 -3 -35 11 -25 31 -33 45 -20 5 5 -19 64
-26 64 -1 0 -8 -4 -16 -9z"/>
<path d="M2118 3593 c7 -3 16 -2 19 1 4 3 -2 6 -13 5 -11 0 -14 -3 -6 -6z"/>
<path d="M1658 3563 c7 -3 16 -2 19 1 4 3 -2 6 -13 5 -11 0 -14 -3 -6 -6z"/>
<path d="M2760 3301 c-13 -25 -31 -55 -41 -66 -9 -11 -29 -42 -44 -68 -25 -46
-26 -51 -14 -98 7 -27 16 -49 20 -49 15 0 120 123 135 158 19 45 12 113 -14
147 l-18 23 -24 -47z"/>
<path d="M2540 3244 c0 -11 8 -28 18 -37 38 -34 36 -12 -2 38 -15 20 -15 20
-16 -1z"/>
<path d="M1664 3204 c7 -29 46 -78 46 -58 0 16 -30 73 -42 80 -7 5 -9 -2 -4
-22z"/>
<path d="M2841 3184 c0 -11 3 -14 6 -6 3 7 2 16 -1 19 -3 4 -6 -2 -5 -13z"/>
<path d="M2868 3158 c9 -9 15 -9 24 0 9 9 7 12 -12 12 -19 0 -21 -3 -12 -12z"/>
<path d="M2980 1920 c0 -13 7 -20 20 -20 23 0 26 10 8 28 -18 18 -28 15 -28
-8z"/>
<path d="M591 1474 c0 -11 3 -14 6 -6 3 7 2 16 -1 19 -3 4 -6 -2 -5 -13z"/>
</g>
</svg>
